<?xml version="1.0" encoding="utf-8"?>
<!-- Generator: Adobe Illustrator 23.0.3, SVG Export Plug-In . SVG Version: 6.00 Build 0)  -->
<svg version="1.1" id="Layer_1" xmlns="http://www.w3.org/2000/svg" xmlns:xlink="http://www.w3.org/1999/xlink" x="0px" y="0px"
	 viewBox="0 0 841.89 595.28" style="enable-background:new 0 0 841.89 595.28;" xml:space="preserve">
<style type="text/css">
	.st0{fill:#AA1F24;}
</style>
<path class="st0" d="M854.23-6.28v323.35c0,3.14-2.54,5.68-5.68,5.68h-18.21c-4.16,0-7.53,3.37-7.53,7.56v72.33
	c0,6.26-5.07,11.29-11.34,11.29c-6.26,0-11.34-5.02-11.34-11.29v-51.41c0-4.21-3.37-7.56-7.53-7.56c-4.18,0-7.56,3.35-7.56,7.56
	V453.8c0,6.24-5.07,11.31-11.34,11.31c-6.24,0-11.31-5.07-11.31-11.31v-71.44c0-4.13-3.4-7.51-7.56-7.51
	c-4.18,0-7.56,3.37-7.56,7.51v53.31c0,6.29-5.07,11.36-11.34,11.36c-6.24,0-11.31-5.07-11.31-11.36v-22.7
	c0-4.16-3.37-7.53-7.56-7.53c-4.16,0-7.56,3.37-7.56,7.53v76.51c0,6.24-5.07,11.31-11.31,11.31c-6.26,0-11.34-5.07-11.34-11.31
	V378.37c0-4.16-3.37-7.58-7.56-7.58c-4.16,0-7.53,3.42-7.53,7.58v38.65c0,6.24-5.07,11.31-11.34,11.31
	c-6.26,0-11.31-5.07-11.31-11.31v-86.71c0-4.18-3.4-7.56-7.56-7.56h-6.87c-4.18,0-7.56,3.37-7.56,7.56v72.33
	c0,6.26-5.07,11.29-11.34,11.29c-6.26,0-11.34-5.02-11.34-11.29v-51.41c0-4.21-3.37-7.56-7.53-7.56c-4.18,0-7.56,3.35-7.56,7.56
	V453.8c0,6.24-5.07,11.31-11.34,11.31c-6.24,0-11.31-5.07-11.31-11.31v-71.44c0-4.13-3.37-7.51-7.56-7.51
	c-4.16,0-7.56,3.37-7.56,7.51v53.31c0,6.29-5.07,11.36-11.31,11.36c-6.26,0-11.34-5.07-11.34-11.36v-22.7
	c0-4.16-3.37-7.53-7.56-7.53c-4.16,0-7.53,3.37-7.53,7.53v76.51c0,6.24-5.07,11.31-11.34,11.31c-6.26,0-11.34-5.07-11.34-11.31
	V378.37c0-4.16-3.37-7.58-7.53-7.58c-4.18,0-7.56,3.42-7.56,7.58v38.65c0,6.24-5.07,11.31-11.34,11.31
	c-6.24,0-11.31-5.07-11.31-11.31v-11.03c-0.33-1.04-0.51-2.21-0.51-3.35v-51.41c0-4.21-3.37-7.56-7.53-7.56
	c-4.18,0-7.56,3.35-7.56,7.56V453.8c0,6.24-5.07,11.31-11.34,11.31c-6.24,0-11.31-5.07-11.31-11.31v-71.44
	c0-4.13-3.4-7.51-7.56-7.51c-4.16,0-7.56,3.37-7.56,7.51v53.31c0,6.29-5.07,11.36-11.31,11.36c-6.26,0-11.34-5.07-11.34-11.36v-22.7
	c0-4.16-3.37-7.53-7.56-7.53c-4.16,0-7.53,3.37-7.53,7.53v76.51c0,6.24-5.07,11.31-11.34,11.31c-6.26,0-11.34-5.07-11.34-11.31
	V378.37c0-4.16-3.37-7.58-7.53-7.58c-4.18,0-7.56,3.42-7.56,7.58v38.65c0,6.24-5.07,11.31-11.34,11.31
	c-6.24,0-11.31-5.07-11.31-11.31v-86.71c0-4.18-3.4-7.56-7.56-7.56h-6.87c-4.18,0-7.56,3.37-7.56,7.56v72.33
	c0,6.26-5.07,11.29-11.34,11.29c-6.24,0-11.31-5.02-11.31-11.29v-51.41c0-4.21-3.4-7.56-7.56-7.56c-4.16,0-7.56,3.35-7.56,7.56
	V453.8c0,6.24-5.07,11.31-11.31,11.31c-6.26,0-11.34-5.07-11.34-11.31v-71.44c0-4.13-3.37-7.51-7.56-7.51
	c-4.16,0-7.56,3.37-7.56,7.51v53.31c0,6.29-5.05,11.36-11.31,11.36c-6.26,0-11.34-5.07-11.34-11.36v-22.7
	c0-4.16-3.37-7.53-7.53-7.53c-4.18,0-7.56,3.37-7.56,7.53v76.51c0,6.24-5.07,11.31-11.34,11.31c-6.24,0-11.31-5.07-11.31-11.31
	V378.37c0-4.16-3.4-7.58-7.56-7.58c-4.18,0-7.56,3.42-7.56,7.58v3.22c-0.03,0.28-0.05,0.53-0.05,0.76v53.31
	c0,6.29-5.07,11.36-11.34,11.36c-6.24,0-11.31-5.07-11.31-11.36v-22.7c0-4.16-3.4-7.53-7.56-7.53c-4.16,0-7.56,3.37-7.56,7.53v76.51
	c0,6.24-5.07,11.31-11.31,11.31c-6.26,0-11.34-5.07-11.34-11.31V378.37c0-4.16-3.37-7.58-7.56-7.58c-4.16,0-7.53,3.42-7.53,7.58
	v38.65c0,6.24-5.07,11.31-11.34,11.31c-6.26,0-11.34-5.07-11.34-11.31v-86.71c0-4.18-3.37-7.56-7.53-7.56H0.56
	c-3.12,0-5.66-2.54-5.66-5.68V-6.28H854.23z"/>
</svg>
